<svg xmlns="http://www.w3.org/2000/svg" fill="#000000" class="bi bi-filetype-ppt" viewBox="0 0 16 16" id="Filetype-Ppt--Streamline-Bootstrap" height="16" width="16">
  <desc>
    Filetype Ppt Streamline Icon: https://streamlinehq.com
  </desc>
  <path fill-rule="evenodd" d="M14 4.5V14a2 2 0 0 1 -2 2h-1v-1h1a1 1 0 0 0 1 -1V4.5h-2A1.5 1.5 0 0 1 9.5 3V1H4a1 1 0 0 0 -1 1v9H2V2a2 2 0 0 1 2 -2h5.5zM1.6 11.85H0v3.999h0.791v-1.342h0.803q0.43 0 0.732 -0.173 0.305 -0.175 0.463 -0.474a1.4 1.4 0 0 0 0.161 -0.677q0 -0.375 -0.158 -0.677a1.2 1.2 0 0 0 -0.46 -0.477q-0.3 -0.18 -0.732 -0.179m0.545 1.333a0.8 0.8 0 0 1 -0.085 0.38 0.57 0.57 0 0 1 -0.238 0.241 0.8 0.8 0 0 1 -0.375 0.082H0.788V12.48h0.66q0.327 0 0.512 0.181 0.185 0.183 0.185 0.522m2.817 -1.333h-1.6v3.999h0.791v-1.342h0.803q0.43 0 0.732 -0.173 0.305 -0.175 0.463 -0.474 0.162 -0.302 0.161 -0.677 0 -0.375 -0.158 -0.677a1.2 1.2 0 0 0 -0.46 -0.477q-0.3 -0.18 -0.732 -0.179m0.545 1.333a0.8 0.8 0 0 1 -0.085 0.38 0.57 0.57 0 0 1 -0.238 0.241 0.8 0.8 0 0 1 -0.375 0.082H4.15V12.48h0.66q0.327 0 0.512 0.181 0.185 0.183 0.185 0.522m2.767 -0.67v3.336H7.48v-3.337H6.346v-0.662h3.065v0.662z" stroke-width="1"></path>
</svg>