<svg xmlns="http://www.w3.org/2000/svg" fill="#000000" class="bi bi-filetype-xml" viewBox="0 0 16 16" id="Filetype-Xml--Streamline-Bootstrap" height="16" width="16">
  <desc>
    Filetype Xml Streamline Icon: https://streamlinehq.com
  </desc>
  <path fill-rule="evenodd" d="M14 4.5V14a2 2 0 0 1 -2 2v-1a1 1 0 0 0 1 -1V4.5h-2A1.5 1.5 0 0 1 9.5 3V1H4a1 1 0 0 0 -1 1v9H2V2a2 2 0 0 1 2 -2h5.5zM3.527 11.85h-0.893l-0.823 1.439h-0.036L0.943 11.85H0.012l1.227 1.983L0 15.85h0.861l0.853 -1.415h0.035l0.85 1.415h0.908l-1.254 -1.992zm0.954 3.999v-2.66h0.038l0.952 2.159h0.516l0.946 -2.16h0.038v2.661h0.715V11.85h-0.8l-1.14 2.596h-0.025L4.58 11.85h-0.806v3.999zm4.71 -0.674h1.696v0.674H8.4V11.85h0.791z" stroke-width="1"></path>
</svg>