<svg xmlns="http://www.w3.org/2000/svg" fill="#000000" class="bi bi-filetype-java" viewBox="0 0 16 16" id="Filetype-Java--Streamline-Bootstrap" height="16" width="16">
  <desc>
    Filetype Java Streamline Icon: https://streamlinehq.com
  </desc>
  <path fill-rule="evenodd" d="M14 4.5V11h-1V4.5h-2A1.5 1.5 0 0 1 9.5 3V1H4a1 1 0 0 0 -1 1v9H2V2a2 2 0 0 1 2 -2h5.5zM1.521 15.175a1.3 1.3 0 0 1 -0.082 -0.466h0.765a0.6 0.6 0 0 0 0.073 0.27 0.5 0.5 0 0 0 0.454 0.246q0.285 0 0.422 -0.164 0.138 -0.165 0.138 -0.466V11.85h0.79v2.725q0 0.66 -0.357 1.005 -0.354 0.345 -0.984 0.345a1.6 1.6 0 0 1 -0.568 -0.094 1.1 1.1 0 0 1 -0.408 -0.266 1.1 1.1 0 0 1 -0.243 -0.39m3.972 -0.354 -0.314 1.028h-0.8l1.342 -3.999h0.926l1.336 3.999h-0.84l-0.314 -1.028zm1.178 -0.59 -0.49 -1.616h-0.035l-0.49 1.617zm2.342 1.618h0.952l1.327 -3.999h-0.878l-0.888 3.138h-0.038L8.59 11.85h-0.917zm3.087 -1.028 -0.314 1.028h-0.8l1.342 -3.999h0.926l1.336 3.999h-0.84l-0.314 -1.028zm1.178 -0.59 -0.49 -1.616h-0.035l-0.49 1.617z" stroke-width="1"></path>
</svg>