<svg xmlns="http://www.w3.org/2000/svg" fill="#000000" class="bi bi-filetype-js" viewBox="0 0 16 16" id="Filetype-Js--Streamline-Bootstrap" height="16" width="16">
  <desc>
    Filetype Js Streamline Icon: https://streamlinehq.com
  </desc>
  <path fill-rule="evenodd" d="M14 4.5V14a2 2 0 0 1 -2 2H8v-1h4a1 1 0 0 0 1 -1V4.5h-2A1.5 1.5 0 0 1 9.5 3V1H4a1 1 0 0 0 -1 1v9H2V2a2 2 0 0 1 2 -2h5.5zM3.186 15.29a1.2 1.2 0 0 1 -0.111 -0.449h0.765a0.58 0.58 0 0 0 0.255 0.384q0.105 0.073 0.249 0.114 0.143 0.041 0.319 0.041 0.246 0 0.413 -0.07a0.56 0.56 0 0 0 0.255 -0.193 0.5 0.5 0 0 0 0.085 -0.29 0.39 0.39 0 0 0 -0.153 -0.326q-0.151 -0.12 -0.462 -0.193l-0.619 -0.143a1.7 1.7 0 0 1 -0.539 -0.214 1 1 0 0 1 -0.351 -0.367 1.1 1.1 0 0 1 -0.123 -0.524q0 -0.366 0.19 -0.639 0.19 -0.272 0.528 -0.422 0.336 -0.15 0.776 -0.149 0.457 0 0.78 0.152 0.324 0.153 0.5 0.41 0.18 0.255 0.2 0.566h-0.75a0.56 0.56 0 0 0 -0.12 -0.258 0.6 0.6 0 0 0 -0.247 -0.181 0.9 0.9 0 0 0 -0.369 -0.068q-0.325 0 -0.513 0.152a0.47 0.47 0 0 0 -0.184 0.384q0 0.18 0.143 0.3a1 1 0 0 0 0.405 0.175l0.62 0.143q0.327 0.075 0.566 0.211 0.24 0.136 0.375 0.358t0.135 0.56q0 0.37 -0.188 0.656a1.2 1.2 0 0 1 -0.539 0.439q-0.351 0.158 -0.858 0.158 -0.381 0 -0.665 -0.09a1.4 1.4 0 0 1 -0.478 -0.252 1.1 1.1 0 0 1 -0.29 -0.375m-3.104 -0.033A1.3 1.3 0 0 1 0 14.791h0.765a0.6 0.6 0 0 0 0.073 0.27 0.5 0.5 0 0 0 0.454 0.246q0.285 0 0.422 -0.164 0.138 -0.165 0.138 -0.466v-2.745h0.79v2.725q0 0.66 -0.357 1.005 -0.354 0.345 -0.984 0.345a1.6 1.6 0 0 1 -0.569 -0.094 1.15 1.15 0 0 1 -0.407 -0.266 1.1 1.1 0 0 1 -0.243 -0.39" stroke-width="1"></path>
</svg>