<svg xmlns="http://www.w3.org/2000/svg" fill="#000000" class="bi bi-filetype-key" viewBox="0 0 16 16" id="Filetype-Key--Streamline-Bootstrap" height="16" width="16">
  <desc>
    Filetype Key Streamline Icon: https://streamlinehq.com
  </desc>
  <path fill-rule="evenodd" d="M14 4.5V14a2 2 0 0 1 -2 2h-1v-1h1a1 1 0 0 0 1 -1V4.5h-2A1.5 1.5 0 0 1 9.5 3V1H4a1 1 0 0 0 -1 1v9H2V2a2 2 0 0 1 2 -2h5.5zM3.21 11.85h-0.87L0.83 13.64H0.79v-1.79H0v3.999h0.791v-1.283l0.41 -0.466 1.12 1.749h0.951l-1.488 -2.276 1.427 -1.723Zm2.903 3.352h-1.79v-1.073h1.685v-0.606H4.323v-1.025h1.79v-0.648H3.538v3.999h2.575zm2.243 -0.888v1.535h-0.794v-1.52L6.223 11.85H7.1l0.853 1.696h0.032l0.855 -1.696h0.856z" stroke-width="1"></path>
</svg>