<svg xmlns="http://www.w3.org/2000/svg" fill="#000000" class="bi bi-filetype-py" viewBox="0 0 16 16" id="Filetype-Py--Streamline-Bootstrap" height="16" width="16">
  <desc>
    Filetype Py Streamline Icon: https://streamlinehq.com
  </desc>
  <path fill-rule="evenodd" d="M14 4.5V14a2 2 0 0 1 -2 2H7v-1h5a1 1 0 0 0 1 -1V4.5h-2A1.5 1.5 0 0 1 9.5 3V1H4a1 1 0 0 0 -1 1v9H2V2a2 2 0 0 1 2 -2h5.5zM0 11.85h1.6q0.434 0 0.732 0.179 0.302 0.175 0.46 0.477t0.158 0.677 -0.16 0.677q-0.158 0.299 -0.464 0.474a1.45 1.45 0 0 1 -0.732 0.173H0.79v1.342H0zm2.06 1.714a0.8 0.8 0 0 0 0.085 -0.381q0 -0.34 -0.185 -0.521 -0.185 -0.182 -0.513 -0.182H0.788v1.406h0.66a0.8 0.8 0 0 0 0.374 -0.082 0.57 0.57 0 0 0 0.238 -0.24m2.963 0.75v1.535H4.23v-1.52L2.89 11.85h0.876l0.853 1.696h0.032l0.856 -1.696h0.855z" stroke-width="1"></path>
</svg>