<svg xmlns="http://www.w3.org/2000/svg" fill="#000000" class="bi bi-filetype-ai" viewBox="0 0 16 16" id="Filetype-Ai--Streamline-Bootstrap" height="16" width="16">
  <desc>
    Filetype Ai Streamline Icon: https://streamlinehq.com
  </desc>
  <path fill-rule="evenodd" d="M14 4.5V14a2 2 0 0 1 -2 2H6v-1h6a1 1 0 0 0 1 -1V4.5h-2A1.5 1.5 0 0 1 9.5 3V1H4a1 1 0 0 0 -1 1v9H2V2a2 2 0 0 1 2 -2h5.5zM1.113 14.82 0.8 15.85H0l1.342 -3.999h0.926l1.336 3.999h-0.841l-0.314 -1.028H1.113Zm1.178 -0.588 -0.49 -1.617h-0.034l-0.49 1.617zm2.425 -2.382v3.999h-0.791V11.85h0.79Z" stroke-width="1"></path>
</svg>