<svg xmlns="http://www.w3.org/2000/svg" fill="#000000" class="bi bi-filetype-otf" viewBox="0 0 16 16" id="Filetype-Otf--Streamline-Bootstrap" height="16" width="16">
  <desc>
    Filetype Otf Streamline Icon: https://streamlinehq.com
  </desc>
  <path fill-rule="evenodd" d="M14 4.5V14a2 2 0 0 1 -2 2h-1v-1h1a1 1 0 0 0 1 -1V4.5h-2A1.5 1.5 0 0 1 9.5 3V1H4a1 1 0 0 0 -1 1v9H2V2a2 2 0 0 1 2 -2h5.5zM2.622 13.666v0.522q0 0.384 -0.117 0.641a0.86 0.86 0 0 1 -0.322 0.387 0.9 0.9 0 0 1 -0.47 0.126 0.9 0.9 0 0 1 -0.47 -0.126 0.87 0.87 0 0 1 -0.32 -0.386 1.55 1.55 0 0 1 -0.117 -0.642v-0.522q0 -0.386 0.117 -0.641a0.87 0.87 0 0 1 0.32 -0.387 0.87 0.87 0 0 1 0.47 -0.129q0.265 0 0.47 0.13a0.86 0.86 0 0 1 0.322 0.386q0.117 0.255 0.117 0.641m0.803 0.519v-0.513q0 -0.565 -0.205 -0.972a1.46 1.46 0 0 0 -0.59 -0.63q-0.38 -0.22 -0.916 -0.22 -0.534 0 -0.92 0.22a1.44 1.44 0 0 0 -0.589 0.627Q0 13.103 0 13.672v0.513q0 0.563 0.205 0.973 0.205 0.406 0.589 0.627 0.386 0.216 0.92 0.216 0.536 0 0.917 -0.216a1.47 1.47 0 0 0 0.589 -0.627q0.204 -0.41 0.205 -0.973m2 1.74v-3.337H6.56v-0.662H3.497v0.662H4.63v3.337h0.794Zm2.251 -1.59v1.59h-0.79v-3.999h2.548v0.653H7.676v1.117h1.606v0.638z" stroke-width="1"></path>
</svg>