<svg xmlns="http://www.w3.org/2000/svg" fill="#000000" class="bi bi-filetype-sass" viewBox="0 0 16 16" id="Filetype-Sass--Streamline-Bootstrap" height="16" width="16">
  <desc>
    Filetype Sass Streamline Icon: https://streamlinehq.com
  </desc>
  <path fill-rule="evenodd" d="M14 4.5V11h-1V4.5h-2A1.5 1.5 0 0 1 9.5 3V1H4a1 1 0 0 0 -1 1v9H2V2a2 2 0 0 1 2 -2h5.5zM1.41 15.29a1.2 1.2 0 0 1 -0.111 -0.449h0.764a0.58 0.58 0 0 0 0.255 0.384 0.8 0.8 0 0 0 0.25 0.114q0.142 0.041 0.319 0.041 0.246 0 0.413 -0.07a0.56 0.56 0 0 0 0.255 -0.193 0.5 0.5 0 0 0 0.084 -0.29 0.39 0.39 0 0 0 -0.152 -0.326q-0.152 -0.12 -0.463 -0.193l-0.618 -0.143a1.7 1.7 0 0 1 -0.539 -0.214 1 1 0 0 1 -0.352 -0.367 1.1 1.1 0 0 1 -0.123 -0.524q0 -0.366 0.19 -0.639 0.192 -0.272 0.528 -0.422 0.338 -0.15 0.777 -0.149 0.456 0 0.779 0.152 0.326 0.153 0.5 0.41 0.18 0.255 0.2 0.566h-0.75a0.56 0.56 0 0 0 -0.12 -0.258 0.6 0.6 0 0 0 -0.246 -0.181 0.9 0.9 0 0 0 -0.37 -0.068q-0.324 0 -0.512 0.152a0.47 0.47 0 0 0 -0.185 0.384q0 0.18 0.144 0.3a1 1 0 0 0 0.404 0.175l0.621 0.143q0.326 0.075 0.566 0.211t0.375 0.358 0.135 0.56q0 0.37 -0.188 0.656a1.2 1.2 0 0 1 -0.539 0.439q-0.351 0.158 -0.858 0.158 -0.381 0 -0.665 -0.09a1.4 1.4 0 0 1 -0.478 -0.252 1.1 1.1 0 0 1 -0.29 -0.375m4.188 -0.387 -0.313 1.028h-0.8l1.342 -3.999h0.926l1.335 4h-0.84l-0.314 -1.03zm1.178 -0.59 -0.49 -1.616h-0.034l-0.49 1.617zm1.352 0.528a1.13 1.13 0 0 0 0.401 0.823q0.195 0.162 0.478 0.252 0.284 0.091 0.665 0.091 0.507 0 0.859 -0.158 0.354 -0.158 0.539 -0.44 0.187 -0.284 0.187 -0.656 0 -0.336 -0.134 -0.56a1 1 0 0 0 -0.375 -0.357 2 2 0 0 0 -0.566 -0.21l-0.621 -0.144a1 1 0 0 1 -0.404 -0.176 0.37 0.37 0 0 1 -0.144 -0.299q0 -0.234 0.185 -0.384 0.188 -0.152 0.512 -0.152 0.214 0 0.37 0.068a0.6 0.6 0 0 1 0.246 0.181 0.56 0.56 0 0 1 0.12 0.258h0.75a1.1 1.1 0 0 0 -0.2 -0.566 1.2 1.2 0 0 0 -0.5 -0.41 1.8 1.8 0 0 0 -0.78 -0.152q-0.44 0 -0.776 0.15 -0.337 0.149 -0.527 0.421 -0.19 0.273 -0.19 0.639 0 0.302 0.122 0.524 0.123 0.223 0.352 0.367 0.228 0.143 0.539 0.213l0.618 0.144q0.31 0.073 0.463 0.193a0.39 0.39 0 0 1 0.152 0.326 0.5 0.5 0 0 1 -0.085 0.29 0.56 0.56 0 0 1 -0.255 0.193q-0.167 0.07 -0.413 0.07 -0.175 0 -0.32 -0.04a0.8 0.8 0 0 1 -0.248 -0.115 0.58 0.58 0 0 1 -0.255 -0.384zm3.503 0.449a1.2 1.2 0 0 1 -0.111 -0.449h0.764a0.58 0.58 0 0 0 0.255 0.384q0.105 0.073 0.25 0.114 0.142 0.041 0.319 0.041 0.245 0 0.413 -0.07a0.56 0.56 0 0 0 0.255 -0.193 0.5 0.5 0 0 0 0.085 -0.29 0.39 0.39 0 0 0 -0.153 -0.326q-0.152 -0.12 -0.463 -0.193l-0.618 -0.143a1.7 1.7 0 0 1 -0.539 -0.214 1 1 0 0 1 -0.351 -0.367 1.1 1.1 0 0 1 -0.123 -0.524q0 -0.366 0.19 -0.639 0.19 -0.272 0.527 -0.422 0.338 -0.15 0.777 -0.149 0.456 0 0.779 0.152 0.326 0.153 0.5 0.41 0.18 0.255 0.2 0.566h-0.75a0.56 0.56 0 0 0 -0.12 -0.258 0.6 0.6 0 0 0 -0.246 -0.181 0.9 0.9 0 0 0 -0.37 -0.068q-0.324 0 -0.512 0.152a0.47 0.47 0 0 0 -0.184 0.384q0 0.18 0.143 0.3a1 1 0 0 0 0.404 0.175l0.621 0.143q0.326 0.075 0.566 0.211t0.375 0.358 0.135 0.56q0 0.37 -0.188 0.656a1.2 1.2 0 0 1 -0.539 0.439q-0.351 0.158 -0.858 0.158a2.2 2.2 0 0 1 -0.665 -0.09 1.4 1.4 0 0 1 -0.478 -0.252 1.1 1.1 0 0 1 -0.29 -0.375" stroke-width="1"></path>
</svg>