<svg xmlns="http://www.w3.org/2000/svg" fill="#000000" class="bi bi-filetype-sh" viewBox="0 0 16 16" id="Filetype-Sh--Streamline-Bootstrap" height="16" width="16">
  <desc>
    Filetype Sh Streamline Icon: https://streamlinehq.com
  </desc>
  <path fill-rule="evenodd" d="M14 4.5V14a2 2 0 0 1 -2 2H8v-1h4a1 1 0 0 0 1 -1V4.5h-2A1.5 1.5 0 0 1 9.5 3V1H4a1 1 0 0 0 -1 1v9H2V2a2 2 0 0 1 2 -2h5.5zM0.111 15.29A1.2 1.2 0 0 1 0 14.84h0.765a0.58 0.58 0 0 0 0.255 0.384q0.105 0.073 0.249 0.114 0.143 0.041 0.319 0.041 0.246 0 0.413 -0.07a0.56 0.56 0 0 0 0.255 -0.193 0.5 0.5 0 0 0 0.085 -0.29 0.39 0.39 0 0 0 -0.153 -0.326q-0.151 -0.12 -0.462 -0.193l-0.619 -0.143a1.7 1.7 0 0 1 -0.539 -0.214 1 1 0 0 1 -0.351 -0.367 1.1 1.1 0 0 1 -0.123 -0.524q0 -0.366 0.19 -0.639 0.19 -0.272 0.528 -0.422 0.336 -0.15 0.776 -0.149 0.457 0 0.78 0.152 0.324 0.153 0.5 0.41 0.18 0.255 0.2 0.566h-0.75a0.56 0.56 0 0 0 -0.12 -0.258 0.6 0.6 0 0 0 -0.247 -0.181 0.9 0.9 0 0 0 -0.369 -0.068q-0.326 0 -0.513 0.152a0.47 0.47 0 0 0 -0.184 0.384q0 0.18 0.143 0.3a1 1 0 0 0 0.405 0.175l0.62 0.143q0.327 0.075 0.566 0.211 0.24 0.136 0.375 0.358t0.135 0.56q0 0.37 -0.188 0.656a1.2 1.2 0 0 1 -0.539 0.439q-0.351 0.158 -0.858 0.158 -0.381 0 -0.665 -0.09a1.4 1.4 0 0 1 -0.478 -0.252 1.1 1.1 0 0 1 -0.29 -0.375Zm6.67 -3.358v4h-0.79v-1.715H4.308v1.714h-0.792v-3.999h0.792v1.626H5.99v-1.626z" stroke-width="1"></path>
</svg>