<svg xmlns="http://www.w3.org/2000/svg" fill="#000000" class="bi bi-filetype-ttf" viewBox="0 0 16 16" id="Filetype-Ttf--Streamline-Bootstrap" height="16" width="16">
  <desc>
    Filetype Ttf Streamline Icon: https://streamlinehq.com
  </desc>
  <path fill-rule="evenodd" d="M14 4.5V14a2 2 0 0 1 -2 2h-2v-1h2a1 1 0 0 0 1 -1V4.5h-2A1.5 1.5 0 0 1 9.5 3V1H4a1 1 0 0 0 -1 1v9H2V2a2 2 0 0 1 2 -2h5.5zM1.928 15.849v-3.337h2.269v3.337h0.794v-3.337h1.137v-0.662H0v0.662h1.134v3.337zm5.315 -1.59v1.59h-0.791V11.85H9v0.653H7.243v1.117h1.605v0.638z" stroke-width="1"></path>
</svg>