<svg xmlns="http://www.w3.org/2000/svg" fill="#000000" class="bi bi-folder2-open" viewBox="0 0 16 16" id="Folder2-Open--Streamline-Bootstrap" height="16" width="16">
  <desc>
    Folder2 Open Streamline Icon: https://streamlinehq.com
  </desc>
  <path d="M1 3.5A1.5 1.5 0 0 1 2.5 2h2.764c0.958 0 1.76 0.56 2.311 1.184C7.985 3.648 8.48 4 9 4h4.5A1.5 1.5 0 0 1 15 5.5v0.64c0.57 0.265 0.94 0.876 0.856 1.546l-0.64 5.124A2.5 2.5 0 0 1 12.733 15H3.266a2.5 2.5 0 0 1 -2.481 -2.19l-0.64 -5.124A1.5 1.5 0 0 1 1 6.14zM2 6h12v-0.5a0.5 0.5 0 0 0 -0.5 -0.5H9c-0.964 0 -1.71 -0.629 -2.174 -1.154C6.374 3.334 5.82 3 5.264 3H2.5a0.5 0.5 0 0 0 -0.5 0.5zm-0.367 1a0.5 0.5 0 0 0 -0.496 0.562l0.64 5.124A1.5 1.5 0 0 0 3.266 14h9.468a1.5 1.5 0 0 0 1.489 -1.314l0.64 -5.124A0.5 0.5 0 0 0 14.367 7z" stroke-width="1"></path>
</svg>