<svg xmlns="http://www.w3.org/2000/svg" height="24px" viewBox="0 -960 960 960" width="24px" fill="#8e8e8e"><path d="M160-80q-33 0-56.5-23.5T80-160v-440q0-33 23.5-56.5T160-680h120l60-80h240l60 80h120q33 0 56.5 23.5T840-600v440q0 33-23.5 56.5T760-80H160Zm0-80h600v-440H680l-60-80H340l-60 80H160v440Zm320-240q75 0 127.5-52.5T660-580q0-75-52.5-127.5T480-760q-75 0-127.5 52.5T300-580q0 75 52.5 127.5T480-400Zm0-80q-45 0-76.5-31.5T372-588q0-45 31.5-76.5T480-696q45 0 76.5 31.5T588-588q0 45-31.5 76.5T480-480Z"/></svg>
