<svg xmlns="http://www.w3.org/2000/svg" height="24px" viewBox="0 -960 960 960" width="24px" fill="#8e8e8e"><path d="M180-120q-33 0-56.5-23.5T100-200q0-33 23.5-56.5T180-280q33 0 56.5 23.5T260-200q0 33-23.5 56.5T180-120Zm0-200q-33 0-56.5-23.5T100-400q0-33 23.5-56.5T180-480q33 0 56.5 23.5T260-400q0 33-23.5 56.5T180-320Zm0-200q-33 0-56.5-23.5T100-600q0-33 23.5-56.5T180-680q33 0 56.5 23.5T260-600q0 33-23.5 56.5T180-520Zm300 400q-33 0-56.5-23.5T400-200q0-33 23.5-56.5T480-280q33 0 56.5 23.5T560-200q0 33-23.5 56.5T480-120Zm0-200q-33 0-56.5-23.5T400-400q0-33 23.5-56.5T480-480q33 0 56.5 23.5T560-400q0 33-23.5 56.5T480-320Zm0-200q-33 0-56.5-23.5T400-600q0-33 23.5-56.5T480-680q33 0 56.5 23.5T560-600q0 33-23.5 56.5T480-520Zm300 400q-33 0-56.5-23.5T700-200q0-33 23.5-56.5T780-280q33 0 56.5 23.5T860-200q0 33-23.5 56.5T780-120Zm0-200q-33 0-56.5-23.5T700-400q0-33 23.5-56.5T780-480q33 0 56.5 23.5T860-400q0 33-23.5 56.5T780-320Zm0-200q-33 0-56.5-23.5T700-600q0-33 23.5-56.5T780-680q33 0 56.5 23.5T860-600q0 33-23.5 56.5T780-520Z"/></svg>
