<svg xmlns="http://www.w3.org/2000/svg" height="24px" viewBox="0 -960 960 960" width="24px" fill="#8e8e8e"><path d="M480-80q-17 0-28.5-11.5T440-120q0-17 11.5-28.5T480-160q17 0 28.5 11.5T520-120q0 17-11.5 28.5T480-80Zm160-240q-50 0-85-35t-35-85q0-34 18-61t48-40v-334h80v334q30 13 48 40t18 61q0 50-35 85t-85 35Zm-320 0q-50 0-85-35t-35-85q0-50 35-85t85-35q50 0 85 35t35 85q0 50-35 85t-85 35Zm0-80q17 0 28.5-11.5T360-440q0-17-11.5-28.5T320-480q-17 0-28.5 11.5T280-440q0 17 11.5 28.5T320-400Zm320 0q17 0 28.5-11.5T680-440q0-17-11.5-28.5T640-480q-17 0-28.5 11.5T600-440q0 17 11.5 28.5T640-400Z"/></svg>
