<svg xmlns="http://www.w3.org/2000/svg" height="24px" viewBox="0 -960 960 960" width="24px" fill="#8e8e8e"><path d="M480-80q-83 0-156-31.5T197-197q-54-54-85.5-127T80-480q0-84 31.5-157t85.5-127q-6-17-9-35.5t-3-36.5q0-50 35-85t85-35q50 0 85 35t35 85q0 18-3 36.5t-9 35.5q54 54 85.5 127T880-480q0 83-31.5 156T763-197q-54 54-127 85.5T480-80Zm0-80q66 0 123-24t108-66q45-42 70.5-99T800-480q0-66-25.5-123T704-702q-51 41-113 66t-131 25q-69 0-131-25t-113-66q-45 42-70.5 99T160-480q0 66 25.5 123t70.5 99q51-41 113-66t131-25Z"/></svg>
