<svg xmlns="http://www.w3.org/2000/svg" height="24px" viewBox="0 -960 960 960" width="24px" fill="#8e8e8e"><path d="M792-56 56-792l56-56 736 736-56 56Zm-96-656v240q0 13-2 26t-6 26l58 58q12-26 18-54t6-56v-240h-80ZM480-400q9 0 17.5 1t17.5 3l74-74q-18-8-38-12t-41-4q-50 0-85 35t-35 85v240q0 21 4 41t12 38l74-74q-2-9-3-17.5t-1-17.5v-240Zm180 200 58 58q12-26 18-54t6-56q0-75-52.5-127.5T480-240q-28 0-56 6t-54 18l58 58q26-12 46-18t40-6q50 0 85 35t35 85Zm40 280v-90q104-12 172-80t68-164h-80q0 75-52.5 127.5T480-240q-20 0-40-6t-46-18l58 58q18 8 38 12t50 4q104 12 172 80t68 164v90h-60Z"/></svg>
