<svg xmlns="http://www.w3.org/2000/svg" height="24px" viewBox="0 -960 960 960" width="24px" fill="#8e8e8e"><path d="M200-80q-50 0-85-35t-35-85q0-50 35-85t85-35q50 0 85 35t35 85q0 50-35 85t-85 85Zm560-560q50 0 85 35t35 85q0 50-35 85t-85 35q-50 0-85-35t-35-85q0-50 35-85t85-35ZM200-680q-50 0-85-35t-35-85q0-50 35-85t85-35q50 0 85 35t35 85q0 50-35 85t-85 85Zm280 280h240q17 0 28.5 11.5T760-360v200h-80v-200H480v200h-80v-200q0-17 11.5-28.5T440-440Zm-40 280v-240h80v120h160v-120h80v240h-80v-120H480v120h-80Z"/></svg>
