<svg xmlns="http://www.w3.org/2000/svg" height="24px" viewBox="0 -960 960 960" width="24px" fill="#8e8e8e"><path d="m644-428-58-58q9-47-27-88t-93-32q-55 0-93.5 38.5T340-500q0-56 41-95t88-27q56 9 97 40t58 98l58-58q-29-40-71.5-62T480-320q-75 0-127.5 52.5T300-140q0-75 52.5-127.5T480-320q41 0 77.5 15.5T595-280l49-48ZM792-56 56-792l56-56 736 736-56 56ZM480-160q-146 0-266-81T40-500q80-143 200-224t260-81q140 0 260 81t200 224q-80 143-200 224t-260 81Zm0-72q65 0 123-23t108-61q-51-40-109-60.5T480-392q-75 0-127.5 52.5T300-212q50 38 108 61t72 23Z"/></svg>
